<svg id="SvgjsSvg1001" width="100%" height="100%" xmlns="http://www.w3.org/2000/svg" version="1.1" xmlns:xlink="http://www.w3.org/1999/xlink" xmlns:svgjs="http://svgjs.com/svgjs"><defs id="SvgjsDefs1002"></defs><text id="SvgjsText1008" font-family="Helvetica" font-size="9" family="Helvetica" size="9" x="0" y="31"><tspan id="SvgjsTspan1009" dy="11.700000000000001" x="0">Mon</tspan></text><text id="SvgjsText1010" font-family="Helvetica" font-size="9" family="Helvetica" size="9" x="0" y="55"><tspan id="SvgjsTspan1011" dy="11.700000000000001" x="0">Wed</tspan></text><text id="SvgjsText1012" font-family="Helvetica" font-size="9" family="Helvetica" size="9" x="0" y="79"><tspan id="SvgjsTspan1013" dy="11.700000000000001" x="0">Fri</tspan></text><text id="SvgjsText1014" font-family="Helvetica" font-size="9" family="Helvetica" size="9" x="26" y="1"><tspan id="SvgjsTspan1015" dy="11.700000000000001" x="26">Feb</tspan></text><text id="SvgjsText1016" font-family="Helvetica" font-size="9" family="Helvetica" size="9" x="74" y="1"><tspan id="SvgjsTspan1017" dy="11.700000000000001" x="74">Mar</tspan></text><text id="SvgjsText1018" font-family="Helvetica" font-size="9" family="Helvetica" size="9" x="122" y="1"><tspan id="SvgjsTspan1019" dy="11.700000000000001" x="122">Apr</tspan></text><text id="SvgjsText1020" font-family="Helvetica" font-size="9" family="Helvetica" size="9" x="170" y="1"><tspan id="SvgjsTspan1021" dy="11.700000000000001" x="170">May</tspan></text><text id="SvgjsText1022" font-family="Helvetica" font-size="9" family="Helvetica" size="9" x="230" y="1"><tspan id="SvgjsTspan1023" dy="11.700000000000001" x="230">Jun</tspan></text><text id="SvgjsText1024" font-family="Helvetica" font-size="9" family="Helvetica" size="9" x="278" y="1"><tspan id="SvgjsTspan1025" dy="11.700000000000001" x="278">Jul</tspan></text><text id="SvgjsText1026" font-family="Helvetica" font-size="9" family="Helvetica" size="9" x="326" y="1"><tspan id="SvgjsTspan1027" dy="11.700000000000001" x="326">Aug</tspan></text><text id="SvgjsText1028" font-family="Helvetica" font-size="9" family="Helvetica" size="9" x="386" y="1"><tspan id="SvgjsTspan1029" dy="11.700000000000001" x="386">Sep</tspan></text><text id="SvgjsText1030" font-family="Helvetica" font-size="9" family="Helvetica" size="9" x="434" y="1"><tspan id="SvgjsTspan1031" dy="11.700000000000001" x="434">Oct</tspan></text><text id="SvgjsText1032" font-family="Helvetica" font-size="9" family="Helvetica" size="9" x="494" y="1"><tspan id="SvgjsTspan1033" dy="11.700000000000001" x="494">Nov</tspan></text><text id="SvgjsText1034" font-family="Helvetica" font-size="9" family="Helvetica" size="9" x="542" y="1"><tspan id="SvgjsTspan1035" dy="11.700000000000001" x="542">Dec</tspan></text><text id="SvgjsText1036" font-family="Helvetica" font-size="9" family="Helvetica" size="9" x="590" y="1"><tspan id="SvgjsTspan1037" dy="11.700000000000001" x="590">Jan</tspan></text><rect id="SvgjsRect1038" width="10" height="10" x="26" y="24" fill="#7bc96f"></rect><rect id="SvgjsRect1039" width="10" height="10" x="26" y="36" fill="#239a3b"></rect><rect id="SvgjsRect1040" width="10" height="10" x="26" y="48" fill="#239a3b"></rect><rect id="SvgjsRect1041" width="10" height="10" x="26" y="60" fill="#196127"></rect><rect id="SvgjsRect1042" width="10" height="10" x="26" y="72" fill="#196127"></rect><rect id="SvgjsRect1043" width="10" height="10" x="26" y="84" fill="#239a3b"></rect><rect id="SvgjsRect1044" width="10" height="10" x="26" y="96" fill="#eeeeee"></rect><rect id="SvgjsRect1045" width="10" height="10" x="38" y="24" fill="#7bc96f"></rect><rect id="SvgjsRect1046" width="10" height="10" x="38" y="36" fill="#c6e48b"></rect><rect id="SvgjsRect1047" width="10" height="10" x="38" y="48" fill="#7bc96f"></rect><rect id="SvgjsRect1048" width="10" height="10" x="38" y="60" fill="#196127"></rect><rect id="SvgjsRect1049" width="10" height="10" x="38" y="72" fill="#7bc96f"></rect><rect id="SvgjsRect1050" width="10" height="10" x="38" y="84" fill="#239a3b"></rect><rect id="SvgjsRect1051" width="10" height="10" x="38" y="96" fill="#c6e48b"></rect><rect id="SvgjsRect1052" width="10" height="10" x="50" y="24" fill="#196127"></rect><rect id="SvgjsRect1053" width="10" height="10" x="50" y="36" fill="#239a3b"></rect><rect id="SvgjsRect1054" width="10" height="10" x="50" y="48" fill="#c6e48b"></rect><rect id="SvgjsRect1055" width="10" height="10" x="50" y="60" fill="#7bc96f"></rect><rect id="SvgjsRect1056" width="10" height="10" x="50" y="72" fill="#c6e48b"></rect><rect id="SvgjsRect1057" width="10" height="10" x="50" y="84" fill="#c6e48b"></rect><rect id="SvgjsRect1058" width="10" height="10" x="50" y="96" fill="#7bc96f"></rect><rect id="SvgjsRect1059" width="10" height="10" x="62" y="24" fill="#c6e48b"></rect><rect id="SvgjsRect1060" width="10" height="10" x="62" y="36" fill="#196127"></rect><rect id="SvgjsRect1061" width="10" height="10" x="62" y="48" fill="#196127"></rect><rect id="SvgjsRect1062" width="10" height="10" x="62" y="60" fill="#239a3b"></rect><rect id="SvgjsRect1063" width="10" height="10" x="62" y="72" fill="#eeeeee"></rect><rect id="SvgjsRect1064" width="10" height="10" x="62" y="84" fill="#7bc96f"></rect><rect id="SvgjsRect1065" width="10" height="10" x="62" y="96" fill="#239a3b"></rect><rect id="SvgjsRect1066" width="10" height="10" x="74" y="24" fill="#7bc96f"></rect><rect id="SvgjsRect1067" width="10" height="10" x="74" y="36" fill="#196127"></rect><rect id="SvgjsRect1068" width="10" height="10" x="74" y="48" fill="#eeeeee"></rect><rect id="SvgjsRect1069" width="10" height="10" x="74" y="60" fill="#196127"></rect><rect id="SvgjsRect1070" width="10" height="10" x="74" y="72" fill="#196127"></rect><rect id="SvgjsRect1071" width="10" height="10" x="74" y="84" fill="#196127"></rect><rect id="SvgjsRect1072" width="10" height="10" x="74" y="96" fill="#239a3b"></rect><rect id="SvgjsRect1073" width="10" height="10" x="86" y="24" fill="#c6e48b"></rect><rect id="SvgjsRect1074" width="10" height="10" x="86" y="36" fill="#7bc96f"></rect><rect id="SvgjsRect1075" width="10" height="10" x="86" y="48" fill="#196127"></rect><rect id="SvgjsRect1076" width="10" height="10" x="86" y="60" fill="#c6e48b"></rect><rect id="SvgjsRect1077" width="10" height="10" x="86" y="72" fill="#7bc96f"></rect><rect id="SvgjsRect1078" width="10" height="10" x="86" y="84" fill="#239a3b"></rect><rect id="SvgjsRect1079" width="10" height="10" x="86" y="96" fill="#c6e48b"></rect><rect id="SvgjsRect1080" width="10" height="10" x="98" y="24" fill="#c6e48b"></rect><rect id="SvgjsRect1081" width="10" height="10" x="98" y="36" fill="#eeeeee"></rect><rect id="SvgjsRect1082" width="10" height="10" x="98" y="48" fill="#239a3b"></rect><rect id="SvgjsRect1083" width="10" height="10" x="98" y="60" fill="#7bc96f"></rect><rect id="SvgjsRect1084" width="10" height="10" x="98" y="72" fill="#196127"></rect><rect id="SvgjsRect1085" width="10" height="10" x="98" y="84" fill="#196127"></rect><rect id="SvgjsRect1086" width="10" height="10" x="98" y="96" fill="#239a3b"></rect><rect id="SvgjsRect1087" width="10" height="10" x="110" y="24" fill="#196127"></rect><rect id="SvgjsRect1088" width="10" height="10" x="110" y="36" fill="#196127"></rect><rect id="SvgjsRect1089" width="10" height="10" x="110" y="48" fill="#196127"></rect><rect id="SvgjsRect1090" width="10" height="10" x="110" y="60" fill="#c6e48b"></rect><rect id="SvgjsRect1091" width="10" height="10" x="110" y="72" fill="#c6e48b"></rect><rect id="SvgjsRect1092" width="10" height="10" x="110" y="84" fill="#196127"></rect><rect id="SvgjsRect1093" width="10" height="10" x="110" y="96" fill="#7bc96f"></rect><rect id="SvgjsRect1094" width="10" height="10" x="122" y="24" fill="#196127"></rect><rect id="SvgjsRect1095" width="10" height="10" x="122" y="36" fill="#196127"></rect><rect id="SvgjsRect1096" width="10" height="10" x="122" y="48" fill="#239a3b"></rect><rect id="SvgjsRect1097" width="10" height="10" x="122" y="60" fill="#c6e48b"></rect><rect id="SvgjsRect1098" width="10" height="10" x="122" y="72" fill="#7bc96f"></rect><rect id="SvgjsRect1099" width="10" height="10" x="122" y="84" fill="#7bc96f"></rect><rect id="SvgjsRect1100" width="10" height="10" x="122" y="96" fill="#c6e48b"></rect><rect id="SvgjsRect1101" width="10" height="10" x="134" y="24" fill="#196127"></rect><rect id="SvgjsRect1102" width="10" height="10" x="134" y="36" fill="#196127"></rect><rect id="SvgjsRect1103" width="10" height="10" x="134" y="48" fill="#196127"></rect><rect id="SvgjsRect1104" width="10" height="10" x="134" y="60" fill="#196127"></rect><rect id="SvgjsRect1105" width="10" height="10" x="134" y="72" fill="#196127"></rect><rect id="SvgjsRect1106" width="10" height="10" x="134" y="84" fill="#196127"></rect><rect id="SvgjsRect1107" width="10" height="10" x="134" y="96" fill="#239a3b"></rect><rect id="SvgjsRect1108" width="10" height="10" x="146" y="24" fill="#c6e48b"></rect><rect id="SvgjsRect1109" width="10" height="10" x="146" y="36" fill="#196127"></rect><rect id="SvgjsRect1110" width="10" height="10" x="146" y="48" fill="#7bc96f"></rect><rect id="SvgjsRect1111" width="10" height="10" x="146" y="60" fill="#196127"></rect><rect id="SvgjsRect1112" width="10" height="10" x="146" y="72" fill="#239a3b"></rect><rect id="SvgjsRect1113" width="10" height="10" x="146" y="84" fill="#7bc96f"></rect><rect id="SvgjsRect1114" width="10" height="10" x="146" y="96" fill="#c6e48b"></rect><rect id="SvgjsRect1115" width="10" height="10" x="158" y="24" fill="#c6e48b"></rect><rect id="SvgjsRect1116" width="10" height="10" x="158" y="36" fill="#196127"></rect><rect id="SvgjsRect1117" width="10" height="10" x="158" y="48" fill="#c6e48b"></rect><rect id="SvgjsRect1118" width="10" height="10" x="158" y="60" fill="#c6e48b"></rect><rect id="SvgjsRect1119" width="10" height="10" x="158" y="72" fill="#196127"></rect><rect id="SvgjsRect1120" width="10" height="10" x="158" y="84" fill="#7bc96f"></rect><rect id="SvgjsRect1121" width="10" height="10" x="158" y="96" fill="#7bc96f"></rect><rect id="SvgjsRect1122" width="10" height="10" x="170" y="24" fill="#c6e48b"></rect><rect id="SvgjsRect1123" width="10" height="10" x="170" y="36" fill="#c6e48b"></rect><rect id="SvgjsRect1124" width="10" height="10" x="170" y="48" fill="#239a3b"></rect><rect id="SvgjsRect1125" width="10" height="10" x="170" y="60" fill="#196127"></rect><rect id="SvgjsRect1126" width="10" height="10" x="170" y="72" fill="#7bc96f"></rect><rect id="SvgjsRect1127" width="10" height="10" x="170" y="84" fill="#239a3b"></rect><rect id="SvgjsRect1128" width="10" height="10" x="170" y="96" fill="#c6e48b"></rect><rect id="SvgjsRect1129" width="10" height="10" x="182" y="24" fill="#c6e48b"></rect><rect id="SvgjsRect1130" width="10" height="10" x="182" y="36" fill="#239a3b"></rect><rect id="SvgjsRect1131" width="10" height="10" x="182" y="48" fill="#7bc96f"></rect><rect id="SvgjsRect1132" width="10" height="10" x="182" y="60" fill="#c6e48b"></rect><rect id="SvgjsRect1133" width="10" height="10" x="182" y="72" fill="#eeeeee"></rect><rect id="SvgjsRect1134" width="10" height="10" x="182" y="84" fill="#196127"></rect><rect id="SvgjsRect1135" width="10" height="10" x="182" y="96" fill="#7bc96f"></rect><rect id="SvgjsRect1136" width="10" height="10" x="194" y="24" fill="#196127"></rect><rect id="SvgjsRect1137" width="10" height="10" x="194" y="36" fill="#239a3b"></rect><rect id="SvgjsRect1138" width="10" height="10" x="194" y="48" fill="#196127"></rect><rect id="SvgjsRect1139" width="10" height="10" x="194" y="60" fill="#c6e48b"></rect><rect id="SvgjsRect1140" width="10" height="10" x="194" y="72" fill="#c6e48b"></rect><rect id="SvgjsRect1141" width="10" height="10" x="194" y="84" fill="#c6e48b"></rect><rect id="SvgjsRect1142" width="10" height="10" x="194" y="96" fill="#196127"></rect><rect id="SvgjsRect1143" width="10" height="10" x="206" y="24" fill="#239a3b"></rect><rect id="SvgjsRect1144" width="10" height="10" x="206" y="36" fill="#196127"></rect><rect id="SvgjsRect1145" width="10" height="10" x="206" y="48" fill="#196127"></rect><rect id="SvgjsRect1146" width="10" height="10" x="206" y="60" fill="#7bc96f"></rect><rect id="SvgjsRect1147" width="10" height="10" x="206" y="72" fill="#239a3b"></rect><rect id="SvgjsRect1148" width="10" height="10" x="206" y="84" fill="#7bc96f"></rect><rect id="SvgjsRect1149" width="10" height="10" x="206" y="96" fill="#196127"></rect><rect id="SvgjsRect1150" width="10" height="10" x="218" y="24" fill="#239a3b"></rect><rect id="SvgjsRect1151" width="10" height="10" x="218" y="36" fill="#196127"></rect><rect id="SvgjsRect1152" width="10" height="10" x="218" y="48" fill="#196127"></rect><rect id="SvgjsRect1153" width="10" height="10" x="218" y="60" fill="#c6e48b"></rect><rect id="SvgjsRect1154" width="10" height="10" x="218" y="72" fill="#196127"></rect><rect id="SvgjsRect1155" width="10" height="10" x="218" y="84" fill="#196127"></rect><rect id="SvgjsRect1156" width="10" height="10" x="218" y="96" fill="#196127"></rect><rect id="SvgjsRect1157" width="10" height="10" x="230" y="24" fill="#196127"></rect><rect id="SvgjsRect1158" width="10" height="10" x="230" y="36" fill="#c6e48b"></rect><rect id="SvgjsRect1159" width="10" height="10" x="230" y="48" fill="#196127"></rect><rect id="SvgjsRect1160" width="10" height="10" x="230" y="60" fill="#c6e48b"></rect><rect id="SvgjsRect1161" width="10" height="10" x="230" y="72" fill="#7bc96f"></rect><rect id="SvgjsRect1162" width="10" height="10" x="230" y="84" fill="#7bc96f"></rect><rect id="SvgjsRect1163" width="10" height="10" x="230" y="96" fill="#c6e48b"></rect><rect id="SvgjsRect1164" width="10" height="10" x="242" y="24" fill="#7bc96f"></rect><rect id="SvgjsRect1165" width="10" height="10" x="242" y="36" fill="#196127"></rect><rect id="SvgjsRect1166" width="10" height="10" x="242" y="48" fill="#7bc96f"></rect><rect id="SvgjsRect1167" width="10" height="10" x="242" y="60" fill="#196127"></rect><rect id="SvgjsRect1168" width="10" height="10" x="242" y="72" fill="#c6e48b"></rect><rect id="SvgjsRect1169" width="10" height="10" x="242" y="84" fill="#c6e48b"></rect><rect id="SvgjsRect1170" width="10" height="10" x="242" y="96" fill="#239a3b"></rect><rect id="SvgjsRect1171" width="10" height="10" x="254" y="24" fill="#239a3b"></rect><rect id="SvgjsRect1172" width="10" height="10" x="254" y="36" fill="#eeeeee"></rect><rect id="SvgjsRect1173" width="10" height="10" x="254" y="48" fill="#196127"></rect><rect id="SvgjsRect1174" width="10" height="10" x="254" y="60" fill="#7bc96f"></rect><rect id="SvgjsRect1175" width="10" height="10" x="254" y="72" fill="#196127"></rect><rect id="SvgjsRect1176" width="10" height="10" x="254" y="84" fill="#7bc96f"></rect><rect id="SvgjsRect1177" width="10" height="10" x="254" y="96" fill="#c6e48b"></rect><rect id="SvgjsRect1178" width="10" height="10" x="266" y="24" fill="#7bc96f"></rect><rect id="SvgjsRect1179" width="10" height="10" x="266" y="36" fill="#7bc96f"></rect><rect id="SvgjsRect1180" width="10" height="10" x="266" y="48" fill="#7bc96f"></rect><rect id="SvgjsRect1181" width="10" height="10" x="266" y="60" fill="#7bc96f"></rect><rect id="SvgjsRect1182" width="10" height="10" x="266" y="72" fill="#196127"></rect><rect id="SvgjsRect1183" width="10" height="10" x="266" y="84" fill="#196127"></rect><rect id="SvgjsRect1184" width="10" height="10" x="266" y="96" fill="#239a3b"></rect><rect id="SvgjsRect1185" width="10" height="10" x="278" y="24" fill="#7bc96f"></rect><rect id="SvgjsRect1186" width="10" height="10" x="278" y="36" fill="#196127"></rect><rect id="SvgjsRect1187" width="10" height="10" x="278" y="48" fill="#196127"></rect><rect id="SvgjsRect1188" width="10" height="10" x="278" y="60" fill="#196127"></rect><rect id="SvgjsRect1189" width="10" height="10" x="278" y="72" fill="#7bc96f"></rect><rect id="SvgjsRect1190" width="10" height="10" x="278" y="84" fill="#196127"></rect><rect id="SvgjsRect1191" width="10" height="10" x="278" y="96" fill="#196127"></rect><rect id="SvgjsRect1192" width="10" height="10" x="290" y="24" fill="#239a3b"></rect><rect id="SvgjsRect1193" width="10" height="10" x="290" y="36" fill="#239a3b"></rect><rect id="SvgjsRect1194" width="10" height="10" x="290" y="48" fill="#239a3b"></rect><rect id="SvgjsRect1195" width="10" height="10" x="290" y="60" fill="#239a3b"></rect><rect id="SvgjsRect1196" width="10" height="10" x="290" y="72" fill="#196127"></rect><rect id="SvgjsRect1197" width="10" height="10" x="290" y="84" fill="#c6e48b"></rect><rect id="SvgjsRect1198" width="10" height="10" x="290" y="96" fill="#196127"></rect><rect id="SvgjsRect1199" width="10" height="10" x="302" y="24" fill="#239a3b"></rect><rect id="SvgjsRect1200" width="10" height="10" x="302" y="36" fill="#239a3b"></rect><rect id="SvgjsRect1201" width="10" height="10" x="302" y="48" fill="#196127"></rect><rect id="SvgjsRect1202" width="10" height="10" x="302" y="60" fill="#c6e48b"></rect><rect id="SvgjsRect1203" width="10" height="10" x="302" y="72" fill="#196127"></rect><rect id="SvgjsRect1204" width="10" height="10" x="302" y="84" fill="#239a3b"></rect><rect id="SvgjsRect1205" width="10" height="10" x="302" y="96" fill="#196127"></rect><rect id="SvgjsRect1206" width="10" height="10" x="314" y="24" fill="#c6e48b"></rect><rect id="SvgjsRect1207" width="10" height="10" x="314" y="36" fill="#c6e48b"></rect><rect id="SvgjsRect1208" width="10" height="10" x="314" y="48" fill="#196127"></rect><rect id="SvgjsRect1209" width="10" height="10" x="314" y="60" fill="#196127"></rect><rect id="SvgjsRect1210" width="10" height="10" x="314" y="72" fill="#196127"></rect><rect id="SvgjsRect1211" width="10" height="10" x="314" y="84" fill="#196127"></rect><rect id="SvgjsRect1212" width="10" height="10" x="314" y="96" fill="#196127"></rect><rect id="SvgjsRect1213" width="10" height="10" x="326" y="24" fill="#239a3b"></rect><rect id="SvgjsRect1214" width="10" height="10" x="326" y="36" fill="#196127"></rect><rect id="SvgjsRect1215" width="10" height="10" x="326" y="48" fill="#196127"></rect><rect id="SvgjsRect1216" width="10" height="10" x="326" y="60" fill="#7bc96f"></rect><rect id="SvgjsRect1217" width="10" height="10" x="326" y="72" fill="#239a3b"></rect><rect id="SvgjsRect1218" width="10" height="10" x="326" y="84" fill="#7bc96f"></rect><rect id="SvgjsRect1219" width="10" height="10" x="326" y="96" fill="#196127"></rect><rect id="SvgjsRect1220" width="10" height="10" x="338" y="24" fill="#239a3b"></rect><rect id="SvgjsRect1221" width="10" height="10" x="338" y="36" fill="#7bc96f"></rect><rect id="SvgjsRect1222" width="10" height="10" x="338" y="48" fill="#c6e48b"></rect><rect id="SvgjsRect1223" width="10" height="10" x="338" y="60" fill="#196127"></rect><rect id="SvgjsRect1224" width="10" height="10" x="338" y="72" fill="#c6e48b"></rect><rect id="SvgjsRect1225" width="10" height="10" x="338" y="84" fill="#c6e48b"></rect><rect id="SvgjsRect1226" width="10" height="10" x="338" y="96" fill="#196127"></rect><rect id="SvgjsRect1227" width="10" height="10" x="350" y="24" fill="#196127"></rect><rect id="SvgjsRect1228" width="10" height="10" x="350" y="36" fill="#239a3b"></rect><rect id="SvgjsRect1229" width="10" height="10" x="350" y="48" fill="#196127"></rect><rect id="SvgjsRect1230" width="10" height="10" x="350" y="60" fill="#196127"></rect><rect id="SvgjsRect1231" width="10" height="10" x="350" y="72" fill="#196127"></rect><rect id="SvgjsRect1232" width="10" height="10" x="350" y="84" fill="#196127"></rect><rect id="SvgjsRect1233" width="10" height="10" x="350" y="96" fill="#7bc96f"></rect><rect id="SvgjsRect1234" width="10" height="10" x="362" y="24" fill="#196127"></rect><rect id="SvgjsRect1235" width="10" height="10" x="362" y="36" fill="#7bc96f"></rect><rect id="SvgjsRect1236" width="10" height="10" x="362" y="48" fill="#196127"></rect><rect id="SvgjsRect1237" width="10" height="10" x="362" y="60" fill="#239a3b"></rect><rect id="SvgjsRect1238" width="10" height="10" x="362" y="72" fill="#239a3b"></rect><rect id="SvgjsRect1239" width="10" height="10" x="362" y="84" fill="#196127"></rect><rect id="SvgjsRect1240" width="10" height="10" x="362" y="96" fill="#196127"></rect><rect id="SvgjsRect1241" width="10" height="10" x="374" y="24" fill="#7bc96f"></rect><rect id="SvgjsRect1242" width="10" height="10" x="374" y="36" fill="#239a3b"></rect><rect id="SvgjsRect1243" width="10" height="10" x="374" y="48" fill="#239a3b"></rect><rect id="SvgjsRect1244" width="10" height="10" x="374" y="60" fill="#7bc96f"></rect><rect id="SvgjsRect1245" width="10" height="10" x="374" y="72" fill="#c6e48b"></rect><rect id="SvgjsRect1246" width="10" height="10" x="374" y="84" fill="#239a3b"></rect><rect id="SvgjsRect1247" width="10" height="10" x="374" y="96" fill="#239a3b"></rect><rect id="SvgjsRect1248" width="10" height="10" x="386" y="24" fill="#c6e48b"></rect><rect id="SvgjsRect1249" width="10" height="10" x="386" y="36" fill="#196127"></rect><rect id="SvgjsRect1250" width="10" height="10" x="386" y="48" fill="#239a3b"></rect><rect id="SvgjsRect1251" width="10" height="10" x="386" y="60" fill="#eeeeee"></rect><rect id="SvgjsRect1252" width="10" height="10" x="386" y="72" fill="#7bc96f"></rect><rect id="SvgjsRect1253" width="10" height="10" x="386" y="84" fill="#7bc96f"></rect><rect id="SvgjsRect1254" width="10" height="10" x="386" y="96" fill="#239a3b"></rect><rect id="SvgjsRect1255" width="10" height="10" x="398" y="24" fill="#196127"></rect><rect id="SvgjsRect1256" width="10" height="10" x="398" y="36" fill="#239a3b"></rect><rect id="SvgjsRect1257" width="10" height="10" x="398" y="48" fill="#eeeeee"></rect><rect id="SvgjsRect1258" width="10" height="10" x="398" y="60" fill="#7bc96f"></rect><rect id="SvgjsRect1259" width="10" height="10" x="398" y="72" fill="#c6e48b"></rect><rect id="SvgjsRect1260" width="10" height="10" x="398" y="84" fill="#7bc96f"></rect><rect id="SvgjsRect1261" width="10" height="10" x="398" y="96" fill="#c6e48b"></rect><rect id="SvgjsRect1262" width="10" height="10" x="410" y="24" fill="#7bc96f"></rect><rect id="SvgjsRect1263" width="10" height="10" x="410" y="36" fill="#239a3b"></rect><rect id="SvgjsRect1264" width="10" height="10" x="410" y="48" fill="#7bc96f"></rect><rect id="SvgjsRect1265" width="10" height="10" x="410" y="60" fill="#c6e48b"></rect><rect id="SvgjsRect1266" width="10" height="10" x="410" y="72" fill="#7bc96f"></rect><rect id="SvgjsRect1267" width="10" height="10" x="410" y="84" fill="#c6e48b"></rect><rect id="SvgjsRect1268" width="10" height="10" x="410" y="96" fill="#eeeeee"></rect><rect id="SvgjsRect1269" width="10" height="10" x="422" y="24" fill="#eeeeee"></rect><rect id="SvgjsRect1270" width="10" height="10" x="422" y="36" fill="#7bc96f"></rect><rect id="SvgjsRect1271" width="10" height="10" x="422" y="48" fill="#c6e48b"></rect><rect id="SvgjsRect1272" width="10" height="10" x="422" y="60" fill="#7bc96f"></rect><rect id="SvgjsRect1273" width="10" height="10" x="422" y="72" fill="#239a3b"></rect><rect id="SvgjsRect1274" width="10" height="10" x="422" y="84" fill="#c6e48b"></rect><rect id="SvgjsRect1275" width="10" height="10" x="422" y="96" fill="#196127"></rect><rect id="SvgjsRect1276" width="10" height="10" x="434" y="24" fill="#c6e48b"></rect><rect id="SvgjsRect1277" width="10" height="10" x="434" y="36" fill="#c6e48b"></rect><rect id="SvgjsRect1278" width="10" height="10" x="434" y="48" fill="#7bc96f"></rect><rect id="SvgjsRect1279" width="10" height="10" x="434" y="60" fill="#c6e48b"></rect><rect id="SvgjsRect1280" width="10" height="10" x="434" y="72" fill="#196127"></rect><rect id="SvgjsRect1281" width="10" height="10" x="434" y="84" fill="#196127"></rect><rect id="SvgjsRect1282" width="10" height="10" x="434" y="96" fill="#7bc96f"></rect><rect id="SvgjsRect1283" width="10" height="10" x="446" y="24" fill="#239a3b"></rect><rect id="SvgjsRect1284" width="10" height="10" x="446" y="36" fill="#239a3b"></rect><rect id="SvgjsRect1285" width="10" height="10" x="446" y="48" fill="#239a3b"></rect><rect id="SvgjsRect1286" width="10" height="10" x="446" y="60" fill="#196127"></rect><rect id="SvgjsRect1287" width="10" height="10" x="446" y="72" fill="#239a3b"></rect><rect id="SvgjsRect1288" width="10" height="10" x="446" y="84" fill="#239a3b"></rect><rect id="SvgjsRect1289" width="10" height="10" x="446" y="96" fill="#239a3b"></rect><rect id="SvgjsRect1290" width="10" height="10" x="458" y="24" fill="#7bc96f"></rect><rect id="SvgjsRect1291" width="10" height="10" x="458" y="36" fill="#7bc96f"></rect><rect id="SvgjsRect1292" width="10" height="10" x="458" y="48" fill="#196127"></rect><rect id="SvgjsRect1293" width="10" height="10" x="458" y="60" fill="#7bc96f"></rect><rect id="SvgjsRect1294" width="10" height="10" x="458" y="72" fill="#196127"></rect><rect id="SvgjsRect1295" width="10" height="10" x="458" y="84" fill="#c6e48b"></rect><rect id="SvgjsRect1296" width="10" height="10" x="458" y="96" fill="#c6e48b"></rect><rect id="SvgjsRect1297" width="10" height="10" x="470" y="24" fill="#239a3b"></rect><rect id="SvgjsRect1298" width="10" height="10" x="470" y="36" fill="#196127"></rect><rect id="SvgjsRect1299" width="10" height="10" x="470" y="48" fill="#7bc96f"></rect><rect id="SvgjsRect1300" width="10" height="10" x="470" y="60" fill="#7bc96f"></rect><rect id="SvgjsRect1301" width="10" height="10" x="470" y="72" fill="#c6e48b"></rect><rect id="SvgjsRect1302" width="10" height="10" x="470" y="84" fill="#196127"></rect><rect id="SvgjsRect1303" width="10" height="10" x="470" y="96" fill="#7bc96f"></rect><rect id="SvgjsRect1304" width="10" height="10" x="482" y="24" fill="#196127"></rect><rect id="SvgjsRect1305" width="10" height="10" x="482" y="36" fill="#239a3b"></rect><rect id="SvgjsRect1306" width="10" height="10" x="482" y="48" fill="#c6e48b"></rect><rect id="SvgjsRect1307" width="10" height="10" x="482" y="60" fill="#196127"></rect><rect id="SvgjsRect1308" width="10" height="10" x="482" y="72" fill="#c6e48b"></rect><rect id="SvgjsRect1309" width="10" height="10" x="482" y="84" fill="#eeeeee"></rect><rect id="SvgjsRect1310" width="10" height="10" x="482" y="96" fill="#7bc96f"></rect><rect id="SvgjsRect1311" width="10" height="10" x="494" y="24" fill="#239a3b"></rect><rect id="SvgjsRect1312" width="10" height="10" x="494" y="36" fill="#c6e48b"></rect><rect id="SvgjsRect1313" width="10" height="10" x="494" y="48" fill="#7bc96f"></rect><rect id="SvgjsRect1314" width="10" height="10" x="494" y="60" fill="#7bc96f"></rect><rect id="SvgjsRect1315" width="10" height="10" x="494" y="72" fill="#196127"></rect><rect id="SvgjsRect1316" width="10" height="10" x="494" y="84" fill="#196127"></rect><rect id="SvgjsRect1317" width="10" height="10" x="494" y="96" fill="#196127"></rect><rect id="SvgjsRect1318" width="10" height="10" x="506" y="24" fill="#239a3b"></rect><rect id="SvgjsRect1319" width="10" height="10" x="506" y="36" fill="#7bc96f"></rect><rect id="SvgjsRect1320" width="10" height="10" x="506" y="48" fill="#196127"></rect><rect id="SvgjsRect1321" width="10" height="10" x="506" y="60" fill="#c6e48b"></rect><rect id="SvgjsRect1322" width="10" height="10" x="506" y="72" fill="#c6e48b"></rect><rect id="SvgjsRect1323" width="10" height="10" x="506" y="84" fill="#7bc96f"></rect><rect id="SvgjsRect1324" width="10" height="10" x="506" y="96" fill="#7bc96f"></rect><rect id="SvgjsRect1325" width="10" height="10" x="518" y="24" fill="#c6e48b"></rect><rect id="SvgjsRect1326" width="10" height="10" x="518" y="36" fill="#239a3b"></rect><rect id="SvgjsRect1327" width="10" height="10" x="518" y="48" fill="#196127"></rect><rect id="SvgjsRect1328" width="10" height="10" x="518" y="60" fill="#239a3b"></rect><rect id="SvgjsRect1329" width="10" height="10" x="518" y="72" fill="#c6e48b"></rect><rect id="SvgjsRect1330" width="10" height="10" x="518" y="84" fill="#239a3b"></rect><rect id="SvgjsRect1331" width="10" height="10" x="518" y="96" fill="#196127"></rect><rect id="SvgjsRect1332" width="10" height="10" x="530" y="24" fill="#196127"></rect><rect id="SvgjsRect1333" width="10" height="10" x="530" y="36" fill="#196127"></rect><rect id="SvgjsRect1334" width="10" height="10" x="530" y="48" fill="#239a3b"></rect><rect id="SvgjsRect1335" width="10" height="10" x="530" y="60" fill="#196127"></rect><rect id="SvgjsRect1336" width="10" height="10" x="530" y="72" fill="#239a3b"></rect><rect id="SvgjsRect1337" width="10" height="10" x="530" y="84" fill="#196127"></rect><rect id="SvgjsRect1338" width="10" height="10" x="530" y="96" fill="#196127"></rect><rect id="SvgjsRect1339" width="10" height="10" x="542" y="24" fill="#239a3b"></rect><rect id="SvgjsRect1340" width="10" height="10" x="542" y="36" fill="#239a3b"></rect><rect id="SvgjsRect1341" width="10" height="10" x="542" y="48" fill="#7bc96f"></rect><rect id="SvgjsRect1342" width="10" height="10" x="542" y="60" fill="#196127"></rect><rect id="SvgjsRect1343" width="10" height="10" x="542" y="72" fill="#c6e48b"></rect><rect id="SvgjsRect1344" width="10" height="10" x="542" y="84" fill="#c6e48b"></rect><rect id="SvgjsRect1345" width="10" height="10" x="542" y="96" fill="#239a3b"></rect><rect id="SvgjsRect1346" width="10" height="10" x="554" y="24" fill="#196127"></rect><rect id="SvgjsRect1347" width="10" height="10" x="554" y="36" fill="#c6e48b"></rect><rect id="SvgjsRect1348" width="10" height="10" x="554" y="48" fill="#7bc96f"></rect><rect id="SvgjsRect1349" width="10" height="10" x="554" y="60" fill="#239a3b"></rect><rect id="SvgjsRect1350" width="10" height="10" x="554" y="72" fill="#196127"></rect><rect id="SvgjsRect1351" width="10" height="10" x="554" y="84" fill="#7bc96f"></rect><rect id="SvgjsRect1352" width="10" height="10" x="554" y="96" fill="#196127"></rect><rect id="SvgjsRect1353" width="10" height="10" x="566" y="24" fill="#196127"></rect><rect id="SvgjsRect1354" width="10" height="10" x="566" y="36" fill="#239a3b"></rect><rect id="SvgjsRect1355" width="10" height="10" x="566" y="48" fill="#196127"></rect><rect id="SvgjsRect1356" width="10" height="10" x="566" y="60" fill="#7bc96f"></rect><rect id="SvgjsRect1357" width="10" height="10" x="566" y="72" fill="#7bc96f"></rect><rect id="SvgjsRect1358" width="10" height="10" x="566" y="84" fill="#7bc96f"></rect><rect id="SvgjsRect1359" width="10" height="10" x="566" y="96" fill="#196127"></rect><rect id="SvgjsRect1360" width="10" height="10" x="578" y="24" fill="#239a3b"></rect><rect id="SvgjsRect1361" width="10" height="10" x="578" y="36" fill="#7bc96f"></rect><rect id="SvgjsRect1362" width="10" height="10" x="578" y="48" fill="#7bc96f"></rect><rect id="SvgjsRect1363" width="10" height="10" x="578" y="60" fill="#c6e48b"></rect><rect id="SvgjsRect1364" width="10" height="10" x="578" y="72" fill="#eeeeee"></rect><rect id="SvgjsRect1365" width="10" height="10" x="578" y="84" fill="#7bc96f"></rect><rect id="SvgjsRect1366" width="10" height="10" x="578" y="96" fill="#c6e48b"></rect><rect id="SvgjsRect1367" width="10" height="10" x="590" y="24" fill="#7bc96f"></rect><rect id="SvgjsRect1368" width="10" height="10" x="590" y="36" fill="#239a3b"></rect><rect id="SvgjsRect1369" width="10" height="10" x="590" y="48" fill="#239a3b"></rect><rect id="SvgjsRect1370" width="10" height="10" x="590" y="60" fill="#7bc96f"></rect><rect id="SvgjsRect1371" width="10" height="10" x="590" y="72" fill="#eeeeee"></rect><rect id="SvgjsRect1372" width="10" height="10" x="590" y="84" fill="#239a3b"></rect><rect id="SvgjsRect1373" width="10" height="10" x="590" y="96" fill="#239a3b"></rect><rect id="SvgjsRect1374" width="10" height="10" x="602" y="24" fill="#239a3b"></rect><rect id="SvgjsRect1375" width="10" height="10" x="602" y="36" fill="#196127"></rect><rect id="SvgjsRect1376" width="10" height="10" x="602" y="48" fill="#196127"></rect><rect id="SvgjsRect1377" width="10" height="10" x="602" y="60" fill="#196127"></rect><rect id="SvgjsRect1378" width="10" height="10" x="602" y="72" fill="#196127"></rect><rect id="SvgjsRect1379" width="10" height="10" x="602" y="84" fill="#7bc96f"></rect><rect id="SvgjsRect1380" width="10" height="10" x="602" y="96" fill="#7bc96f"></rect><rect id="SvgjsRect1381" width="10" height="10" x="614" y="24" fill="#239a3b"></rect><rect id="SvgjsRect1382" width="10" height="10" x="614" y="36" fill="#196127"></rect><rect id="SvgjsRect1383" width="10" height="10" x="614" y="48" fill="#c6e48b"></rect><rect id="SvgjsRect1384" width="10" height="10" x="614" y="60" fill="#7bc96f"></rect><rect id="SvgjsRect1385" width="10" height="10" x="614" y="72" fill="#196127"></rect><rect id="SvgjsRect1386" width="10" height="10" x="614" y="84" fill="#196127"></rect><rect id="SvgjsRect1387" width="10" height="10" x="614" y="96" fill="#7bc96f"></rect><rect id="SvgjsRect1388" width="10" height="10" x="626" y="24" fill="#c6e48b"></rect><rect id="SvgjsRect1389" width="10" height="10" x="626" y="36" fill="#7bc96f"></rect><rect id="SvgjsRect1390" width="10" height="10" x="626" y="48" fill="#c6e48b"></rect><rect id="SvgjsRect1391" width="10" height="10" x="626" y="60" fill="#196127"></rect><rect id="SvgjsRect1392" width="10" height="10" x="626" y="72" fill="#7bc96f"></rect><rect id="SvgjsRect1393" width="10" height="10" x="626" y="84" fill="#c6e48b"></rect><rect id="SvgjsRect1394" width="10" height="10" x="626" y="96" fill="#239a3b"></rect><rect id="SvgjsRect1395" width="10" height="10" x="638" y="24" fill="#7bc96f"></rect><rect id="SvgjsRect1396" width="10" height="10" x="638" y="36" fill="#c6e48b"></rect><rect id="SvgjsRect1397" width="10" height="10" x="638" y="48" fill="#196127"></rect><rect id="SvgjsRect1398" width="10" height="10" x="638" y="60" fill="#7bc96f"></rect><rect id="SvgjsRect1399" width="10" height="10" x="638" y="72" fill="#eeeeee"></rect><rect id="SvgjsRect1400" width="10" height="10" x="638" y="84" fill="#239a3b"></rect><rect id="SvgjsRect1401" width="10" height="10" x="638" y="96" fill="#c6e48b"></rect><rect id="SvgjsRect1402" width="10" height="10" x="650" y="24" fill="#c6e48b"></rect><rect id="SvgjsRect1403" width="10" height="10" x="650" y="36" fill="#196127"></rect></svg>
